<mxfile host="65bd71144e">
    <diagram id="JzYVBjAWWu_qVBYdAyjy" name="Page-1">
        <mxGraphModel dx="1213" dy="949" grid="1" gridSize="10" guides="1" tooltips="1" connect="1" arrows="1" fold="1" page="1" pageScale="1" pageWidth="900" pageHeight="1700" math="0" shadow="0">
            <root>
                <mxCell id="0"/>
                <mxCell id="1" parent="0"/>
                <mxCell id="6" value="" style="edgeStyle=none;html=1;fontSize=14;" parent="1" source="2" target="5" edge="1">
                    <mxGeometry relative="1" as="geometry"/>
                </mxCell>
                <mxCell id="2" value="&lt;font style=&quot;font-size: 14px;&quot;&gt;start&lt;/font&gt;" style="ellipse;whiteSpace=wrap;html=1;strokeWidth=2;fontSize=14;" parent="1" vertex="1">
                    <mxGeometry x="390" y="62" width="120" height="60" as="geometry"/>
                </mxCell>
                <mxCell id="8" value="" style="edgeStyle=none;html=1;fontSize=14;" parent="1" source="5" target="7" edge="1">
                    <mxGeometry relative="1" as="geometry"/>
                </mxCell>
                <mxCell id="5" value="dataset" style="shape=parallelogram;perimeter=parallelogramPerimeter;whiteSpace=wrap;html=1;fixedSize=1;strokeWidth=2;fontSize=14;" parent="1" vertex="1">
                    <mxGeometry x="365" y="162" width="170" height="60" as="geometry"/>
                </mxCell>
                <mxCell id="15" value="" style="edgeStyle=none;html=1;fontSize=14;" parent="1" source="7" target="13" edge="1">
                    <mxGeometry relative="1" as="geometry"/>
                </mxCell>
                <mxCell id="7" value="Extract dataset1, dataset2" style="rounded=0;whiteSpace=wrap;html=1;strokeWidth=2;fontSize=14;" parent="1" vertex="1">
                    <mxGeometry x="342" y="262" width="217" height="60" as="geometry"/>
                </mxCell>
                <mxCell id="12" value="" style="edgeStyle=none;html=1;fontSize=14;" parent="1" source="9" target="11" edge="1">
                    <mxGeometry relative="1" as="geometry"/>
                </mxCell>
                <mxCell id="9" value="correlation" style="shape=parallelogram;perimeter=parallelogramPerimeter;whiteSpace=wrap;html=1;fixedSize=1;strokeWidth=2;fontSize=14;" parent="1" vertex="1">
                    <mxGeometry x="390" y="1488" width="120" height="60" as="geometry"/>
                </mxCell>
                <mxCell id="11" value="&lt;font style=&quot;font-size: 14px;&quot;&gt;end&lt;/font&gt;" style="ellipse;whiteSpace=wrap;html=1;strokeWidth=2;fontSize=14;" parent="1" vertex="1">
                    <mxGeometry x="390" y="1578" width="120" height="60" as="geometry"/>
                </mxCell>
                <mxCell id="20" value="" style="edgeStyle=none;html=1;fontSize=14;" edge="1" parent="1" source="13" target="18">
                    <mxGeometry relative="1" as="geometry"/>
                </mxCell>
                <mxCell id="13" value="Calculate dataset1_mean, dataset2_mean" style="rounded=0;whiteSpace=wrap;html=1;strokeWidth=2;fontSize=14;" parent="1" vertex="1">
                    <mxGeometry x="295" y="362" width="311" height="60" as="geometry"/>
                </mxCell>
                <mxCell id="22" value="" style="edgeStyle=none;html=1;fontSize=14;" edge="1" parent="1" source="18" target="21">
                    <mxGeometry relative="1" as="geometry"/>
                </mxCell>
                <mxCell id="18" value="Initiate i = 0, di1_differences[], di2_differences[], correlation_numerator = 0" style="rounded=0;whiteSpace=wrap;html=1;strokeWidth=2;fontSize=14;" vertex="1" parent="1">
                    <mxGeometry x="205" y="462" width="491" height="60" as="geometry"/>
                </mxCell>
                <mxCell id="25" value="&lt;font style=&quot;font-size: 14px;&quot;&gt;&lt;b style=&quot;font-size: 14px;&quot;&gt;yes&lt;/b&gt;&lt;/font&gt;" style="edgeStyle=none;html=1;fontColor=#00CC00;fontSize=14;" edge="1" parent="1" source="21" target="24">
                    <mxGeometry x="-0.299" relative="1" as="geometry">
                        <mxPoint as="offset"/>
                    </mxGeometry>
                </mxCell>
                <mxCell id="26" value="No" style="edgeStyle=none;html=1;fontSize=14;fontColor=#FF0000;entryX=0.5;entryY=0;entryDx=0;entryDy=0;" edge="1" parent="1" source="21" target="35">
                    <mxGeometry x="-0.2377" relative="1" as="geometry">
                        <mxPoint x="580" y="892" as="targetPoint"/>
                        <Array as="points">
                            <mxPoint x="190" y="621"/>
                            <mxPoint x="190" y="882"/>
                            <mxPoint x="450" y="882"/>
                        </Array>
                        <mxPoint as="offset"/>
                    </mxGeometry>
                </mxCell>
                <mxCell id="21" value="i &amp;lt;&amp;nbsp;&lt;span style=&quot;font-size: 14px;&quot;&gt;dataset.length&lt;/span&gt;" style="rhombus;whiteSpace=wrap;html=1;fontSize=14;" vertex="1" parent="1">
                    <mxGeometry x="340" y="581" width="220" height="80" as="geometry"/>
                </mxCell>
                <mxCell id="29" style="edgeStyle=none;html=1;entryX=0.5;entryY=1;entryDx=0;entryDy=0;fontSize=14;fontColor=#FF0000;" edge="1" parent="1" source="24" target="28">
                    <mxGeometry relative="1" as="geometry">
                        <Array as="points">
                            <mxPoint x="710" y="782"/>
                            <mxPoint x="710" y="662"/>
                            <mxPoint x="650" y="662"/>
                        </Array>
                    </mxGeometry>
                </mxCell>
                <mxCell id="24" value="&lt;span style=&quot;font-size: 14px;&quot;&gt;di1_difference = dataset_item.di1 - dataset1_mean&lt;br style=&quot;font-size: 14px;&quot;&gt;&lt;/span&gt;&lt;span style=&quot;font-size: 14px;&quot;&gt;di2_difference = dataset_item.di2 - dataset2_mean&lt;/span&gt;&lt;br style=&quot;font-size: 14px;&quot;&gt;&lt;span style=&quot;font-size: 14px;&quot;&gt;di1_differences.push(&lt;/span&gt;&lt;span style=&quot;font-size: 14px;&quot;&gt;di1_difference&lt;/span&gt;)&lt;br style=&quot;font-size: 14px;&quot;&gt;&lt;span style=&quot;font-size: 14px;&quot;&gt;di2_differences.push(&lt;/span&gt;&lt;span style=&quot;font-size: 14px;&quot;&gt;di2_difference&lt;/span&gt;)&lt;br style=&quot;font-size: 14px;&quot;&gt;correlation_numerator += di1_difference * di2_difference" style="rounded=0;whiteSpace=wrap;html=1;fontSize=14;fontColor=#F0F0F0;" vertex="1" parent="1">
                    <mxGeometry x="248" y="721" width="405" height="120" as="geometry"/>
                </mxCell>
                <mxCell id="34" style="edgeStyle=none;html=1;fontSize=14;fontColor=#F0F0F0;" edge="1" parent="1" source="28">
                    <mxGeometry relative="1" as="geometry">
                        <mxPoint x="450" y="553.5" as="targetPoint"/>
                    </mxGeometry>
                </mxCell>
                <mxCell id="28" value="i++" style="rounded=0;whiteSpace=wrap;html=1;fontSize=14;fontColor=#F0F0F0;" vertex="1" parent="1">
                    <mxGeometry x="590" y="535" width="120" height="37" as="geometry"/>
                </mxCell>
                <mxCell id="121" style="edgeStyle=none;html=1;entryX=0.5;entryY=0;entryDx=0;entryDy=0;fontSize=14;fontColor=#F0F0F0;" edge="1" parent="1" source="35" target="114">
                    <mxGeometry relative="1" as="geometry"/>
                </mxCell>
                <mxCell id="35" value="Initiate j = 0, di1_difference_sqr_sum = 0, di2_difference_sqr_sum = 0, correlation_denominator_sqr = 0" style="rounded=0;whiteSpace=wrap;html=1;strokeWidth=2;fontSize=14;" vertex="1" parent="1">
                    <mxGeometry x="100" y="922" width="700" height="60" as="geometry"/>
                </mxCell>
                <mxCell id="113" value="&lt;font style=&quot;font-size: 14px;&quot;&gt;&lt;b style=&quot;font-size: 14px;&quot;&gt;yes&lt;/b&gt;&lt;/font&gt;" style="edgeStyle=none;html=1;fontColor=#00CC00;fontSize=14;" edge="1" source="114" target="116" parent="1">
                    <mxGeometry x="-0.299" relative="1" as="geometry">
                        <mxPoint as="offset"/>
                    </mxGeometry>
                </mxCell>
                <mxCell id="114" value="j &amp;lt;&amp;nbsp;&lt;span style=&quot;font-size: 14px;&quot;&gt;dataset.length&lt;/span&gt;" style="rhombus;whiteSpace=wrap;html=1;fontSize=14;" vertex="1" parent="1">
                    <mxGeometry x="340.5" y="1038" width="220" height="80" as="geometry"/>
                </mxCell>
                <mxCell id="115" style="edgeStyle=none;html=1;entryX=0.5;entryY=1;entryDx=0;entryDy=0;fontSize=14;fontColor=#FF0000;exitX=1;exitY=0.5;exitDx=0;exitDy=0;" edge="1" source="116" target="118" parent="1">
                    <mxGeometry relative="1" as="geometry">
                        <mxPoint x="750.5" y="1272" as="sourcePoint"/>
                        <Array as="points">
                            <mxPoint x="710.5" y="1244"/>
                            <mxPoint x="710.5" y="1119"/>
                            <mxPoint x="650.5" y="1119"/>
                        </Array>
                    </mxGeometry>
                </mxCell>
                <mxCell id="116" value="&lt;span style=&quot;color: rgb(240, 240, 240); font-family: Helvetica; font-size: 14px; font-style: normal; font-variant-ligatures: normal; font-variant-caps: normal; font-weight: 400; letter-spacing: normal; orphans: 2; text-align: center; text-indent: 0px; text-transform: none; widows: 2; word-spacing: 0px; -webkit-text-stroke-width: 0px; background-color: rgb(42, 37, 47); text-decoration-thickness: initial; text-decoration-style: initial; text-decoration-color: initial; float: none; display: inline !important;&quot;&gt;di1_difference_sqr_sum&amp;nbsp;+= di1_differences[j] * di1_differences[j]&lt;br&gt;&lt;/span&gt;di2_difference_sqr_sum&amp;nbsp;+= di2_differences[j]&amp;nbsp;* di2_differences[j]" style="rounded=0;whiteSpace=wrap;html=1;fontSize=14;fontColor=#F0F0F0;" vertex="1" parent="1">
                    <mxGeometry x="225.5" y="1202" width="450" height="84" as="geometry"/>
                </mxCell>
                <mxCell id="117" style="edgeStyle=none;html=1;fontSize=14;fontColor=#F0F0F0;" edge="1" source="118" parent="1">
                    <mxGeometry relative="1" as="geometry">
                        <mxPoint x="450.4999999999998" y="1010.5" as="targetPoint"/>
                    </mxGeometry>
                </mxCell>
                <mxCell id="118" value="j++" style="rounded=0;whiteSpace=wrap;html=1;fontSize=14;fontColor=#F0F0F0;" vertex="1" parent="1">
                    <mxGeometry x="590.5" y="992" width="120" height="37" as="geometry"/>
                </mxCell>
                <mxCell id="119" value="No" style="edgeStyle=none;html=1;fontSize=14;fontColor=#FF0000;entryX=0.5;entryY=0;entryDx=0;entryDy=0;" edge="1" parent="1" target="120">
                    <mxGeometry x="-0.2377" relative="1" as="geometry">
                        <mxPoint x="450.4999999999998" y="1375" as="targetPoint"/>
                        <mxPoint x="340.5" y="1078" as="sourcePoint"/>
                        <Array as="points">
                            <mxPoint x="190.5" y="1078"/>
                            <mxPoint x="191" y="1312"/>
                            <mxPoint x="450" y="1312"/>
                        </Array>
                        <mxPoint as="offset"/>
                    </mxGeometry>
                </mxCell>
                <mxCell id="122" style="edgeStyle=none;html=1;entryX=0.5;entryY=0;entryDx=0;entryDy=0;fontSize=14;fontColor=#F0F0F0;" edge="1" parent="1" source="120" target="9">
                    <mxGeometry relative="1" as="geometry"/>
                </mxCell>
                <mxCell id="120" value="&lt;div&gt;Calculate correlation_denominator_sqr = di1_difference_sqr_sum * di2_difference_sqr_sum&lt;/div&gt;&lt;div&gt;Calculate correlation_denominator = sqrt(correlation_denominator_sqr)&lt;/div&gt;&lt;div&gt;Calculate correlation = correlation_numerator / correlation_denominator&lt;/div&gt;" style="rounded=0;whiteSpace=wrap;html=1;fontSize=14;fontColor=#F0F0F0;" vertex="1" parent="1">
                    <mxGeometry x="110" y="1342" width="680" height="100" as="geometry"/>
                </mxCell>
            </root>
        </mxGraphModel>
    </diagram>
</mxfile>